<?xml version="1.0" encoding="UTF-8" standalone="no"?>
<!DOCTYPE svg PUBLIC "-//W3C//DTD SVG 1.1//EN" "http://www.w3.org/Graphics/SVG/1.1/DTD/svg11.dtd">
<svg width="100%" height="100%" viewBox="0 0 488 561" version="1.1" xmlns="http://www.w3.org/2000/svg" xmlns:xlink="http://www.w3.org/1999/xlink" xml:space="preserve" xmlns:serif="http://www.serif.com/" style="fill-rule:evenodd;clip-rule:evenodd;stroke-linecap:round;stroke-linejoin:round;stroke-miterlimit:1.5;">
    <g transform="matrix(1,0,0,1,-996.61652,-980.247699)">
        <g id="tidyplots_logo" transform="matrix(1,0,0,1,297.237205,960.092872)">
            <g transform="matrix(3.581699,0,0,3.581699,-2719.367306,-5561.046153)">
                <path d="M1015.905,1563.808C1019.986,1561.452 1025.014,1561.452 1029.095,1563.808C1041.785,1571.134 1069.466,1587.116 1082.156,1594.442C1086.237,1596.798 1088.751,1601.153 1088.751,1605.865L1088.751,1667.135C1088.751,1671.847 1086.237,1676.202 1082.156,1678.558C1069.466,1685.884 1041.785,1701.866 1029.095,1709.192C1025.014,1711.548 1019.986,1711.548 1015.905,1709.192C1003.215,1701.866 975.534,1685.884 962.844,1678.558C958.763,1676.202 956.249,1671.847 956.249,1667.135L956.249,1605.865C956.249,1601.153 958.763,1596.798 962.844,1594.442C975.534,1587.116 1003.215,1571.134 1015.905,1563.808Z" style="fill:white;stroke:rgb(90,90,90);stroke-width:3.49px;"/>
            </g>
            <g transform="matrix(3.257681,0,0,3.257681,-2388.058573,-5030.790171)">
                <path d="M1018.512,1562.303C1020.98,1560.878 1024.02,1560.878 1026.488,1562.303C1038.291,1569.117 1072.96,1589.133 1084.763,1595.947C1087.231,1597.372 1088.751,1600.005 1088.751,1602.855L1088.751,1670.145C1088.751,1672.995 1087.231,1675.628 1084.763,1677.053C1072.96,1683.867 1038.291,1703.883 1026.488,1710.697C1024.02,1712.122 1020.98,1712.122 1018.512,1710.697C1006.709,1703.883 972.04,1683.867 960.237,1677.053C957.769,1675.628 956.249,1672.995 956.249,1670.145L956.249,1602.855C956.249,1600.005 957.769,1597.372 960.237,1595.947C972.04,1589.133 1006.709,1569.117 1018.512,1562.303Z" style="fill:none;"/>
                <clipPath id="_clip1">
                    <path d="M1018.512,1562.303C1020.98,1560.878 1024.02,1560.878 1026.488,1562.303C1038.291,1569.117 1072.96,1589.133 1084.763,1595.947C1087.231,1597.372 1088.751,1600.005 1088.751,1602.855L1088.751,1670.145C1088.751,1672.995 1087.231,1675.628 1084.763,1677.053C1072.96,1683.867 1038.291,1703.883 1026.488,1710.697C1024.02,1712.122 1020.98,1712.122 1018.512,1710.697C1006.709,1703.883 972.04,1683.867 960.237,1677.053C957.769,1675.628 956.249,1672.995 956.249,1670.145L956.249,1602.855C956.249,1600.005 957.769,1597.372 960.237,1595.947C972.04,1589.133 1006.709,1569.117 1018.512,1562.303Z"/>
                </clipPath>
                <g clip-path="url(#_clip1)">
                    <g transform="matrix(0.276971,-0.159909,0.153164,0.265289,587.046603,1413.122388)">
                        <g transform="matrix(1,0,0,1,-19,-4)">
                            <g transform="matrix(1.34891,0,0,1.142857,-332.672897,-155.714286)">
                                <path d="M942,1131.469L942,1181.531C942,1185.101 939.648,1188 936.75,1188L626.25,1188C623.352,1188 621,1185.101 621,1181.531L621,1131.469C621,1127.899 623.352,1125 626.25,1125L936.75,1125C939.648,1125 942,1127.899 942,1131.469Z" style="fill:rgb(0,114,178);"/>
                            </g>
                            <g transform="matrix(0.205607,0,0,0.086477,774.317757,1065.989607)">
                                <rect x="621" y="1125" width="321" height="63" style="fill:rgb(0,114,178);"/>
                            </g>
                            <g transform="matrix(0,-0.17757,0.086477,0,868.489607,1304.771028)">
                                <path d="M942,1156.5C942,1173.885 934.823,1188 925.984,1188L637.016,1188C628.177,1188 621,1173.885 621,1156.5C621,1139.115 628.177,1125 637.016,1125L925.984,1125C934.823,1125 942,1139.115 942,1156.5Z" style="fill:rgb(0,114,178);"/>
                            </g>
                        </g>
                        <g transform="matrix(1,0,0,1,-96,86)">
                            <g transform="matrix(1.34891,0,0,1.142857,-335.672897,-155.714286)">
                                <path d="M942,1131.469L942,1181.531C942,1185.101 939.648,1188 936.75,1188L626.25,1188C623.352,1188 621,1185.101 621,1181.531L621,1131.469C621,1127.899 623.352,1125 626.25,1125L936.75,1125C939.648,1125 942,1127.899 942,1131.469Z" style="fill:rgb(86,180,233);"/>
                            </g>
                            <g transform="matrix(0.205607,0,0,0.086477,774.317757,1065.989607)">
                                <rect x="621" y="1125" width="321" height="63" style="fill:rgb(86,180,233);"/>
                            </g>
                            <g transform="matrix(0,-0.17757,0.086477,0,868.489607,1304.771028)">
                                <path d="M942,1156.5C942,1173.885 934.823,1188 925.984,1188L637.016,1188C628.177,1188 621,1173.885 621,1156.5C621,1139.115 628.177,1125 637.016,1125L925.984,1125C934.823,1125 942,1139.115 942,1156.5Z" style="fill:rgb(86,180,233);"/>
                            </g>
                        </g>
                        <g transform="matrix(1,0,0,1,-129,176)">
                            <g transform="matrix(1.34891,0,0,1.142857,-335.672897,-155.714286)">
                                <path d="M942,1131.469L942,1181.531C942,1185.101 939.648,1188 936.75,1188L626.25,1188C623.352,1188 621,1185.101 621,1181.531L621,1131.469C621,1127.899 623.352,1125 626.25,1125L936.75,1125C939.648,1125 942,1127.899 942,1131.469Z" style="fill:rgb(0,158,115);"/>
                            </g>
                            <g transform="matrix(0.205607,0,0,0.086477,774.317757,1065.989607)">
                                <rect x="621" y="1125" width="321" height="63" style="fill:rgb(0,158,115);"/>
                            </g>
                            <g transform="matrix(0,-0.17757,0.086477,0,868.489607,1304.771028)">
                                <path d="M942,1156.5C942,1173.885 934.823,1188 925.984,1188L637.016,1188C628.177,1188 621,1173.885 621,1156.5C621,1139.115 628.177,1125 637.016,1125L925.984,1125C934.823,1125 942,1139.115 942,1156.5Z" style="fill:rgb(0,158,115);"/>
                            </g>
                        </g>
                        <g transform="matrix(1,0,0,1,16,266)">
                            <g transform="matrix(1.34891,0,0,1.142857,-365.672897,-155.714286)">
                                <path d="M942,1131.469L942,1181.531C942,1185.101 939.648,1188 936.75,1188L626.25,1188C623.352,1188 621,1185.101 621,1181.531L621,1131.469C621,1127.899 623.352,1125 626.25,1125L936.75,1125C939.648,1125 942,1127.899 942,1131.469Z" style="fill:rgb(245,199,16);"/>
                            </g>
                            <g transform="matrix(0.205607,0,0,0.086477,774.317757,1065.989607)">
                                <rect x="621" y="1125" width="321" height="63" style="fill:rgb(245,199,16);"/>
                            </g>
                            <g transform="matrix(0,-0.17757,0.086477,0,868.489607,1304.771028)">
                                <path d="M942,1156.5C942,1173.885 934.823,1188 925.984,1188L637.016,1188C628.177,1188 621,1173.885 621,1156.5C621,1139.115 628.177,1125 637.016,1125L925.984,1125C934.823,1125 942,1139.115 942,1156.5Z" style="fill:rgb(245,199,16);"/>
                            </g>
                        </g>
                        <g transform="matrix(1,0,0,1,-41,356)">
                            <g transform="matrix(1.34891,0,0,1.142857,-401.672897,-155.714286)">
                                <path d="M942,1131.469L942,1181.531C942,1185.101 939.648,1188 936.75,1188L626.25,1188C623.352,1188 621,1185.101 621,1181.531L621,1131.469C621,1127.899 623.352,1125 626.25,1125L936.75,1125C939.648,1125 942,1127.899 942,1131.469Z" style="fill:rgb(213,94,0);"/>
                            </g>
                            <g transform="matrix(0.342679,0,0,0.086477,645.196262,1065.989607)">
                                <rect x="621" y="1125" width="321" height="63" style="fill:rgb(213,94,0);"/>
                            </g>
                            <g transform="matrix(0,-0.17757,0.086477,0,868.489607,1304.771028)">
                                <path d="M942,1156.5C942,1173.885 934.823,1188 925.984,1188L637.016,1188C628.177,1188 621,1173.885 621,1156.5C621,1139.115 628.177,1125 637.016,1125L925.984,1125C934.823,1125 942,1139.115 942,1156.5Z" style="fill:rgb(213,94,0);"/>
                            </g>
                        </g>
                    </g>
                </g>
            </g>
            <g transform="matrix(1.306286,-0.754185,0.754185,1.306286,-668.982082,-160.978)">
                <g transform="matrix(44.197835,0,0,44.197835,820.481828,757.434013)">
                    <path d="M0.182,-0.517L0.182,-0.672L0.097,-0.672L0.097,-0.517L0.009,-0.517L0.009,-0.442L0.097,-0.442L0.097,-0.113C0.097,-0.089 0.099,-0.07 0.104,-0.055C0.109,-0.04 0.116,-0.029 0.126,-0.021C0.135,-0.013 0.148,-0.008 0.164,-0.005C0.179,-0.002 0.198,-0 0.22,-0L0.285,-0L0.285,-0.075L0.246,-0.075C0.233,-0.075 0.222,-0.075 0.213,-0.076C0.205,-0.077 0.199,-0.08 0.194,-0.083C0.189,-0.086 0.186,-0.091 0.184,-0.097C0.183,-0.103 0.182,-0.111 0.182,-0.121L0.182,-0.442L0.285,-0.442L0.285,-0.517L0.182,-0.517Z" style="fill-rule:nonzero;"/>
                </g>
                <g transform="matrix(44.197835,0,0,44.197835,834.404146,757.434013)">
                    <path d="M0.154,-0.61L0.154,-0.714L0.069,-0.714L0.069,-0.61L0.154,-0.61ZM0.069,-0.517L0.069,-0L0.154,-0L0.154,-0.517L0.069,-0.517Z" style="fill-rule:nonzero;"/>
                </g>
                <g transform="matrix(44.197835,0,0,44.197835,844.216065,757.434013)">
                    <path d="M0.126,-0.254C0.126,-0.279 0.129,-0.304 0.134,-0.328C0.139,-0.352 0.148,-0.373 0.16,-0.392C0.172,-0.411 0.188,-0.426 0.208,-0.437C0.228,-0.448 0.252,-0.454 0.281,-0.454C0.31,-0.454 0.335,-0.448 0.356,-0.438C0.377,-0.427 0.394,-0.412 0.407,-0.394C0.419,-0.376 0.429,-0.355 0.435,-0.332C0.441,-0.308 0.444,-0.283 0.444,-0.258C0.444,-0.234 0.441,-0.21 0.435,-0.187C0.43,-0.164 0.421,-0.143 0.408,-0.124C0.395,-0.106 0.379,-0.091 0.359,-0.08C0.339,-0.069 0.315,-0.063 0.286,-0.063C0.259,-0.063 0.235,-0.068 0.214,-0.079C0.194,-0.09 0.177,-0.104 0.165,-0.122C0.151,-0.14 0.142,-0.161 0.136,-0.183C0.129,-0.206 0.126,-0.23 0.126,-0.254ZM0.526,-0L0.526,-0.714L0.441,-0.714L0.441,-0.448L0.439,-0.448C0.43,-0.463 0.418,-0.476 0.405,-0.486C0.391,-0.497 0.376,-0.505 0.361,-0.512C0.346,-0.518 0.33,-0.522 0.315,-0.525C0.3,-0.528 0.285,-0.529 0.272,-0.529C0.233,-0.529 0.198,-0.522 0.169,-0.508C0.139,-0.493 0.114,-0.474 0.095,-0.45C0.075,-0.425 0.06,-0.397 0.051,-0.364C0.041,-0.331 0.036,-0.297 0.036,-0.26C0.036,-0.223 0.041,-0.189 0.051,-0.156C0.061,-0.123 0.076,-0.095 0.096,-0.07C0.115,-0.045 0.14,-0.026 0.17,-0.011C0.199,0.004 0.234,0.011 0.274,0.011C0.31,0.011 0.343,0.005 0.373,-0.008C0.403,-0.021 0.425,-0.041 0.439,-0.07L0.441,-0.07L0.441,-0L0.526,-0Z" style="fill-rule:nonzero;"/>
                </g>
                <g transform="matrix(44.197835,0,0,44.197835,870.425382,757.434013)">
                    <path d="M0.267,0.069C0.257,0.094 0.247,0.116 0.238,0.133C0.228,0.15 0.217,0.165 0.206,0.176C0.194,0.186 0.181,0.195 0.167,0.2C0.152,0.205 0.136,0.207 0.117,0.207C0.107,0.207 0.097,0.206 0.087,0.205C0.077,0.204 0.067,0.201 0.058,0.198L0.058,0.12C0.065,0.123 0.074,0.126 0.084,0.129C0.093,0.131 0.101,0.132 0.108,0.132C0.125,0.132 0.14,0.128 0.151,0.12C0.163,0.111 0.172,0.099 0.178,0.084L0.213,-0.003L0.008,-0.517L0.104,-0.517L0.255,-0.094L0.257,-0.094L0.402,-0.517L0.492,-0.517L0.267,0.069Z" style="fill-rule:nonzero;"/>
                </g>
            </g>
            <g transform="matrix(1.306286,-0.754185,0.754185,1.306286,-653.704156,-76.515856)">
                <g transform="matrix(44.197835,0,0,44.197835,820.481828,757.434013)">
                    <path d="M0.067,-0.517L0.067,0.197L0.152,0.197L0.152,-0.069L0.154,-0.069C0.163,-0.054 0.175,-0.041 0.189,-0.03C0.202,-0.02 0.217,-0.012 0.232,-0.006C0.247,0 0.263,0.004 0.279,0.007C0.294,0.01 0.308,0.011 0.321,0.011C0.36,0.011 0.395,0.004 0.424,-0.01C0.454,-0.024 0.479,-0.043 0.498,-0.068C0.518,-0.092 0.533,-0.12 0.542,-0.153C0.552,-0.186 0.557,-0.22 0.557,-0.257C0.557,-0.294 0.552,-0.328 0.542,-0.361C0.532,-0.394 0.517,-0.423 0.497,-0.448C0.478,-0.472 0.453,-0.492 0.423,-0.507C0.394,-0.522 0.359,-0.529 0.319,-0.529C0.283,-0.529 0.25,-0.523 0.22,-0.51C0.19,-0.496 0.168,-0.476 0.154,-0.447L0.152,-0.447L0.152,-0.517L0.067,-0.517ZM0.467,-0.263C0.467,-0.238 0.464,-0.213 0.459,-0.189C0.454,-0.165 0.445,-0.144 0.433,-0.125C0.421,-0.106 0.405,-0.091 0.386,-0.08C0.366,-0.069 0.341,-0.063 0.312,-0.063C0.283,-0.063 0.258,-0.069 0.237,-0.08C0.216,-0.091 0.2,-0.105 0.186,-0.123C0.173,-0.141 0.164,-0.162 0.158,-0.185C0.152,-0.209 0.149,-0.234 0.149,-0.259C0.149,-0.283 0.152,-0.307 0.158,-0.33C0.163,-0.353 0.172,-0.374 0.185,-0.393C0.198,-0.411 0.214,-0.426 0.234,-0.437C0.254,-0.448 0.278,-0.454 0.307,-0.454C0.334,-0.454 0.358,-0.449 0.379,-0.438C0.399,-0.427 0.416,-0.413 0.428,-0.395C0.442,-0.377 0.451,-0.357 0.458,-0.334C0.464,-0.31 0.467,-0.287 0.467,-0.263Z" style="fill-rule:nonzero;"/>
                </g>
                <g transform="matrix(44.197835,0,0,44.197835,846.691144,757.434013)">
                    <rect x="0.069" y="-0.714" width="0.085" height="0.714" style="fill-rule:nonzero;"/>
                </g>
                <g transform="matrix(44.197835,0,0,44.197835,856.503064,757.434013)">
                    <path d="M0.126,-0.258C0.126,-0.289 0.13,-0.317 0.139,-0.342C0.147,-0.366 0.158,-0.386 0.173,-0.403C0.188,-0.42 0.205,-0.432 0.225,-0.441C0.244,-0.45 0.265,-0.454 0.287,-0.454C0.309,-0.454 0.33,-0.45 0.35,-0.441C0.369,-0.432 0.386,-0.42 0.401,-0.403C0.416,-0.386 0.427,-0.366 0.435,-0.342C0.444,-0.317 0.448,-0.289 0.448,-0.258C0.448,-0.227 0.444,-0.199 0.435,-0.175C0.427,-0.15 0.416,-0.13 0.401,-0.114C0.386,-0.097 0.369,-0.085 0.35,-0.076C0.33,-0.067 0.309,-0.063 0.287,-0.063C0.265,-0.063 0.244,-0.067 0.225,-0.076C0.205,-0.085 0.188,-0.097 0.173,-0.114C0.158,-0.13 0.147,-0.15 0.139,-0.175C0.13,-0.199 0.126,-0.227 0.126,-0.258ZM0.036,-0.258C0.036,-0.22 0.041,-0.185 0.052,-0.152C0.063,-0.119 0.079,-0.091 0.1,-0.067C0.121,-0.042 0.148,-0.023 0.179,-0.009C0.21,0.004 0.246,0.011 0.287,0.011C0.328,0.011 0.365,0.004 0.396,-0.009C0.427,-0.023 0.453,-0.042 0.474,-0.067C0.495,-0.091 0.511,-0.119 0.522,-0.152C0.533,-0.185 0.538,-0.22 0.538,-0.258C0.538,-0.296 0.533,-0.331 0.522,-0.364C0.511,-0.398 0.495,-0.426 0.474,-0.451C0.453,-0.475 0.427,-0.494 0.396,-0.508C0.365,-0.522 0.328,-0.529 0.287,-0.529C0.246,-0.529 0.21,-0.522 0.179,-0.508C0.148,-0.494 0.121,-0.475 0.1,-0.451C0.079,-0.426 0.063,-0.398 0.052,-0.364C0.041,-0.331 0.036,-0.296 0.036,-0.258Z" style="fill-rule:nonzero;"/>
                </g>
                <g transform="matrix(44.197835,0,0,44.197835,881.872621,757.434013)">
                    <path d="M0.182,-0.517L0.182,-0.672L0.097,-0.672L0.097,-0.517L0.009,-0.517L0.009,-0.442L0.097,-0.442L0.097,-0.113C0.097,-0.089 0.099,-0.07 0.104,-0.055C0.109,-0.04 0.116,-0.029 0.126,-0.021C0.135,-0.013 0.148,-0.008 0.164,-0.005C0.179,-0.002 0.198,-0 0.22,-0L0.285,-0L0.285,-0.075L0.246,-0.075C0.233,-0.075 0.222,-0.075 0.213,-0.076C0.205,-0.077 0.199,-0.08 0.194,-0.083C0.189,-0.086 0.186,-0.091 0.184,-0.097C0.183,-0.103 0.182,-0.111 0.182,-0.121L0.182,-0.442L0.285,-0.442L0.285,-0.517L0.182,-0.517Z" style="fill-rule:nonzero;"/>
                </g>
                <g transform="matrix(44.197835,0,0,44.197835,895.794939,757.434013)">
                    <path d="M0.116,-0.163L0.031,-0.163C0.032,-0.131 0.039,-0.104 0.051,-0.082C0.063,-0.059 0.079,-0.041 0.099,-0.028C0.119,-0.014 0.142,-0.004 0.168,0.002C0.194,0.008 0.221,0.011 0.25,0.011C0.276,0.011 0.302,0.008 0.329,0.004C0.355,-0.002 0.379,-0.01 0.4,-0.023C0.421,-0.036 0.438,-0.052 0.451,-0.073C0.464,-0.094 0.47,-0.12 0.47,-0.151C0.47,-0.176 0.465,-0.196 0.456,-0.213C0.446,-0.23 0.433,-0.244 0.417,-0.255C0.402,-0.266 0.384,-0.274 0.363,-0.281C0.343,-0.288 0.322,-0.293 0.301,-0.298C0.281,-0.303 0.261,-0.307 0.241,-0.311C0.221,-0.316 0.203,-0.321 0.187,-0.328C0.171,-0.334 0.158,-0.342 0.147,-0.352C0.137,-0.361 0.132,-0.373 0.132,-0.388C0.132,-0.401 0.135,-0.412 0.142,-0.42C0.149,-0.429 0.157,-0.435 0.168,-0.441C0.179,-0.446 0.191,-0.449 0.204,-0.451C0.216,-0.453 0.229,-0.454 0.242,-0.454C0.256,-0.454 0.27,-0.452 0.284,-0.45C0.297,-0.447 0.31,-0.442 0.321,-0.435C0.332,-0.428 0.342,-0.419 0.349,-0.409C0.356,-0.398 0.361,-0.384 0.362,-0.367L0.447,-0.367C0.445,-0.398 0.438,-0.425 0.427,-0.446C0.416,-0.467 0.401,-0.483 0.382,-0.495C0.362,-0.508 0.341,-0.517 0.316,-0.521C0.291,-0.526 0.264,-0.529 0.235,-0.529C0.212,-0.529 0.19,-0.526 0.167,-0.52C0.143,-0.515 0.123,-0.506 0.104,-0.494C0.086,-0.483 0.071,-0.468 0.06,-0.449C0.048,-0.43 0.042,-0.408 0.042,-0.382C0.042,-0.349 0.05,-0.323 0.067,-0.304C0.084,-0.285 0.104,-0.271 0.13,-0.261C0.154,-0.25 0.182,-0.242 0.211,-0.237C0.24,-0.231 0.268,-0.225 0.292,-0.217C0.318,-0.211 0.338,-0.201 0.355,-0.19C0.372,-0.179 0.38,-0.162 0.38,-0.14C0.38,-0.124 0.376,-0.111 0.368,-0.101C0.36,-0.09 0.35,-0.082 0.338,-0.077C0.325,-0.072 0.312,-0.068 0.297,-0.066C0.282,-0.064 0.268,-0.063 0.255,-0.063C0.238,-0.063 0.221,-0.065 0.205,-0.068C0.188,-0.071 0.173,-0.077 0.161,-0.085C0.147,-0.092 0.137,-0.102 0.129,-0.116C0.121,-0.129 0.117,-0.144 0.116,-0.163Z" style="fill-rule:nonzero;"/>
                </g>
            </g>
        </g>
    </g>
</svg>
