<?xml version="1.0" encoding="UTF-8"?>
<svg id="Layer_1" data-name="Layer 1" xmlns="http://www.w3.org/2000/svg" xmlns:xlink="http://www.w3.org/1999/xlink" viewBox="0 0 2551.18 2948.03">
  <defs>
    <style>
      .cls-1 {
        clip-path: url(#clippath);
      }

      .cls-2, .cls-3, .cls-4, .cls-5, .cls-6, .cls-7, .cls-8 {
        fill: none;
      }

      .cls-2, .cls-9, .cls-10, .cls-11, .cls-12, .cls-13, .cls-14, .cls-15, .cls-16, .cls-17, .cls-18, .cls-19, .cls-20 {
        stroke-width: 0px;
      }

      .cls-3 {
        stroke: #d55e00;
      }

      .cls-3, .cls-4, .cls-5, .cls-6, .cls-7 {
        stroke-width: 30px;
      }

      .cls-3, .cls-4, .cls-5, .cls-6, .cls-7, .cls-8 {
        stroke-miterlimit: 10;
      }

      .cls-4 {
        stroke: #56b4e9;
      }

      .cls-5 {
        stroke: #009e73;
      }

      .cls-6 {
        stroke: #0072b2;
      }

      .cls-7 {
        stroke: #f5c710;
      }

      .cls-8 {
        stroke: #fff;
        stroke-width: 50px;
      }

      .cls-21 {
        clip-path: url(#clippath-1);
      }

      .cls-9 {
        fill: #4d4d4d;
      }

      .cls-10 {
        fill: #4575b4;
      }

      .cls-11 {
        fill: #56b4e9;
      }

      .cls-12 {
        fill: #d55e00;
      }

      .cls-13 {
        fill: #b8d9e9;
      }

      .cls-14 {
        fill: #7dacd1;
      }

      .cls-15 {
        fill: #009e73;
      }

      .cls-16 {
        fill: #fff;
      }

      .cls-17 {
        fill: #ffffbf;
      }

      .cls-18 {
        fill: #e7f6e9;
      }

      .cls-19 {
        fill: #f5c710;
      }

      .cls-20 {
        fill: #0072b2;
      }
    </style>
    <clipPath id="clippath">
      <polygon class="cls-2" points="2834.42 -2793.11 1663.59 -3469.09 492.77 -2793.11 492.77 -1441.16 1663.59 -765.18 2834.42 -1441.16 2834.42 -2793.11"/>
    </clipPath>
    <clipPath id="clippath-1">
      <polygon class="cls-2" points="1273.89 2854.61 2467.23 2165.63 2467.23 787.68 1273.89 98.71 80.55 787.68 80.55 2165.63 1273.89 2854.61"/>
    </clipPath>
  </defs>
  <g class="cls-1">
    <g>
      <rect class="cls-10" x="-326.18" y="314.33" width="409.71" height="442.37" transform="translate(-284.01 11.08) rotate(-30)"/>
      <rect class="cls-14" x="28.43" y="109.59" width="409.71" height="442.37" transform="translate(-134.13 160.96) rotate(-30)"/>
      <rect class="cls-13" x="383.25" y="-95.26" width="409.71" height="442.37" transform="translate(15.83 310.92) rotate(-30)"/>
      <rect class="cls-18" x="738.07" y="-300.12" width="409.71" height="442.37" transform="translate(165.8 460.89) rotate(-30)"/>
      <rect class="cls-17" x="1092.68" y="-504.85" width="409.71" height="442.37" transform="translate(315.67 610.76) rotate(-30)"/>
    </g>
    <g>
      <rect class="cls-10" x="-188.53" y="-276.71" width="409.71" height="442.37" transform="translate(29.95 .73) rotate(-30)"/>
      <rect class="cls-14" x="166.08" y="-481.44" width="409.71" height="442.37" transform="translate(179.82 150.6) rotate(-30)"/>
    </g>
  </g>
  <g>
    <polygon class="cls-16" points="2444.72 800.65 1273.89 124.68 103.06 800.65 103.06 2152.61 1273.89 2828.59 2444.72 2152.61 2444.72 800.65"/>
    <path class="cls-9" d="M13.39,2204.41v-19.4s.04-1416.73.04-1416.73l-.09-19.35L1273.93,21.13l1260.46,727.78.04,1455.48-1260.5,727.75-16.8-9.7L30.19,2214.11l-16.8-9.7ZM80.55,787.73l-.04,1377.93,1193.34,688.93,1193.3-688.95.04-1377.93L1273.85,98.78,80.55,787.73Z"/>
    <g class="cls-21">
      <rect class="cls-20" x="215" y="2" width="397.51" height="1771.99" transform="translate(975.9 85.67) rotate(60)"/>
      <rect class="cls-11" x="330.24" y="617.72" width="397.51" height="1494.58" transform="translate(1446.63 224.38) rotate(60)"/>
      <rect class="cls-15" x="436.99" y="1035.23" width="397.51" height="1623.42" transform="translate(1917.37 372.9) rotate(60)"/>
      <rect class="cls-19" x="1054.28" y="994.33" width="397.51" height="2079.54" transform="translate(2388.1 -68.1) rotate(60)"/>
      <rect class="cls-12" x="987.14" y="1925.96" width="397.51" height="1380.94" transform="translate(2858.84 281.2) rotate(60)"/>
    </g>
    <g>
      <line class="cls-7" x1="2334.26" y1="1399.81" x2="1336.97" y2="1975.6"/>
      <line class="cls-7" x1="2273.42" y1="1294.43" x2="2395.1" y2="1505.18"/>
    </g>
    <g>
      <line class="cls-3" x1="2247.45" y1="2011.42" x2="1250.15" y2="2587.21"/>
      <line class="cls-3" x1="2186.61" y1="1906.05" x2="2308.28" y2="2116.8"/>
    </g>
    <g>
      <line class="cls-6" x1="1360.98" y1="332.87" x2="363.69" y2="908.65"/>
      <line class="cls-6" x1="1300.14" y1="227.49" x2="1421.82" y2="438.24"/>
    </g>
    <g>
      <path class="cls-9" d="M1353.3,752.93l22.93-13.24,24.05,41.65,21.54-12.44,11.82,20.48-21.54,12.44,56.22,97.37c3,5.2,6.61,7.76,10.82,7.68,2.35,0,5.59-1.18,9.7-3.56,1.09-.63,2.25-1.34,3.47-2.13,1.22-.79,2.6-1.79,4.14-3.01l11.5,19.92c-2.12,2.34-4.48,4.51-7.08,6.5-2.6,2-5.54,3.94-8.81,5.83-10.58,6.11-19.49,7.26-26.73,3.45-7.24-3.81-13.62-10.49-19.14-20.06l-57.02-98.76-18.26,10.55-11.82-20.48,18.26-10.54-24.05-41.65Z"/>
      <path class="cls-9" d="M1425.37,692.93l23.05-13.31,16.41,28.42-23.05,13.31-16.41-28.42ZM1457.78,749.07l23.05-13.31,85.73,148.49-23.05,13.31-85.73-148.49Z"/>
      <path class="cls-9" d="M1604.37,669.64c5.62.47,13,2.71,22.12,6.73l-43.51-75.36,21.79-12.58,118.55,205.33-20.41,11.78-11.98-20.76c.04,12.24-2.36,22.48-7.2,30.72-4.84,8.24-11.9,15.04-21.18,20.4-14.97,8.65-31.97,9.15-51,1.49-19.03-7.65-35.24-23.08-48.65-46.3-12.55-21.73-18.42-43.44-17.62-65.14.8-21.7,10.49-37.91,29.06-48.63,10.29-5.94,20.3-8.5,30.03-7.68ZM1618.34,810.72c12.32,7.25,25.21,6.99,38.66-.77,10.44-6.03,16.14-15.98,17.11-29.84.96-13.86-3.95-30.13-14.72-48.8-10.88-18.85-22.41-30.8-34.57-35.85-12.16-5.05-23.34-4.63-33.53,1.25-11.36,6.56-17.79,16.71-19.27,30.44-1.48,13.74,3.19,29.98,14.02,48.74,9.22,15.97,19.99,27.58,32.31,34.84Z"/>
      <path class="cls-9" d="M1768.3,568.87l25.07-14.47c2.33,11.41,7.84,37.34,16.53,77.79,6.57,30.4,11.76,55.28,15.55,74.64,8.88,45.6,13.04,74.13,12.5,85.58-.55,11.45-7.36,20.96-20.45,28.51-3.19,1.84-5.72,3.12-7.6,3.83-1.88.71-4.3,1.43-7.24,2.14l-13.19-22.85c4.64-1.07,7.92-1.97,9.84-2.71,1.92-.74,3.55-1.49,4.9-2.27,4.19-2.42,6.83-4.96,7.92-7.63,1.09-2.67,1.66-5.5,1.72-8.5-.01-.98-.7-5.65-2.06-14.01-1.36-8.36-2.42-14.55-3.17-18.56l-138.55-124.78,25.7-14.84,106.31,100.65-33.76-142.54Z"/>
    </g>
    <g>
      <path class="cls-9" d="M1594.2,1169.32l22.33-12.89,10.4,18.01c1.01-8.82,3.26-16.48,6.73-23,4.79-9.53,12.39-17.3,22.82-23.33,15.43-8.91,31.94-10.57,49.52-4.99,17.58,5.58,32.69,19.32,45.34,41.23,17.09,29.6,21.53,55.23,13.31,76.89-5.21,13.72-14.35,24.36-27.43,31.9-10.27,5.93-20.19,8.67-29.74,8.2-5.54-.18-12.6-1.92-21.17-5.2l40.06,69.39-22.83,13.18-109.35-189.4ZM1741.6,1226.22c1.93-13.01-2.23-28.4-12.48-46.16-6.25-10.82-13.19-19.22-20.82-25.19-14.58-11.54-29.77-12.75-45.55-3.64-15.87,9.16-22.17,23.34-18.89,42.54,1.74,10.27,6.38,21.92,13.89,34.94,6.05,10.49,12.78,18.5,20.16,24.05,14.04,10.61,28.96,11.36,44.75,2.24,10.69-6.17,17.01-15.77,18.94-28.78Z"/>
      <path class="cls-9" d="M1724.7,1025.81l22.83-13.18,107.59,186.36-22.83,13.18-107.59-186.36Z"/>
      <path class="cls-9" d="M1930.2,992.56c18.74,4.73,34.65,18.41,47.72,41.06,12.64,21.89,17.78,43.03,15.45,63.42-2.33,20.39-14.63,37.01-36.89,49.86-18.56,10.72-36.95,12.91-55.16,6.58-18.21-6.33-33.46-20.14-45.76-41.44-13.17-22.81-17.91-44.3-14.21-64.47,3.7-20.16,15.25-35.84,34.65-47.04,17.38-10.04,35.45-12.69,54.19-7.96ZM1968.16,1091.04c-1.04-14.66-5.62-29-13.71-43.02-7.31-12.67-15.27-21.82-23.87-27.44-13.57-8.83-28.14-8.76-43.69.22-13.8,7.97-20.76,19.08-20.89,33.35-.13,14.27,4.15,28.91,12.83,43.95,8.34,14.45,18.42,24.67,30.26,30.68s24.56,5.08,38.2-2.79c14.97-8.64,21.93-20.29,20.88-34.95Z"/>
      <path class="cls-9" d="M1964.08,904.35l23.09-13.33,21.9,37.93,21.69-12.52,10.77,18.65-21.69,12.52,51.2,88.68c2.73,4.74,6.17,6.98,10.31,6.73,2.31-.09,5.54-1.34,9.69-3.73,1.1-.63,2.27-1.35,3.5-2.13,1.24-.79,2.63-1.78,4.2-2.99l10.47,18.14c-2.18,2.28-4.59,4.4-7.23,6.37-2.64,1.97-5.61,3.91-8.9,5.82-10.66,6.15-19.46,7.6-26.42,4.34s-12.95-9.24-17.98-17.95l-51.93-89.94-18.4,10.62-10.77-18.65,18.4-10.62-21.9-37.93Z"/>
      <path class="cls-9" d="M2134,981.15c5.08,7.21,10.39,11.93,15.93,14.14,10.12,3.97,22.43,1.77,36.93-6.61,8.63-4.98,15.16-11.21,19.6-18.67,4.44-7.47,4.43-15.05,0-22.74-3.37-5.84-8.56-8.76-15.56-8.78-4.43.08-12.29,1.74-23.59,4.99l-21.07,6.08c-13.43,3.92-23.97,5.72-31.61,5.39-13.53-.42-23.45-6.08-29.75-16.99-7.42-12.85-8.74-25.97-3.94-39.33,4.8-13.37,15.12-24.63,30.98-33.78,20.74-11.98,39.16-14.6,55.27-7.89,10.14,4.3,17.66,10.89,22.57,19.78l-21.57,12.45c-3.4-4.88-7.95-8.47-13.67-10.78-8.81-2.87-19.85-.48-33.09,7.16-8.83,5.1-14.57,10.6-17.22,16.51-2.65,5.91-2.41,11.56.7,16.95,3.41,5.9,9.12,8.9,17.13,8.99,4.66.12,10.82-.96,18.47-3.24l17.5-5.2c19.01-5.67,32.43-8.29,40.27-7.86,12.25.71,21.99,7.32,29.21,19.84,6.98,12.1,8.37,25.22,4.15,39.38s-15.82,26.73-34.83,37.7c-20.46,11.81-37.61,15.59-51.42,11.34-13.82-4.26-24.93-12.98-33.34-26.16l21.95-12.67Z"/>
    </g>
    <g>
      <line class="cls-5" x1="1503.63" y1="1343.12" x2="506.33" y2="1918.91"/>
      <line class="cls-5" x1="1442.79" y1="1237.75" x2="1564.46" y2="1448.5"/>
    </g>
    <g>
      <line class="cls-4" x1="1267.77" y1="930.54" x2="270.48" y2="1506.33"/>
      <line class="cls-4" x1="1206.93" y1="825.17" x2="1328.61" y2="1035.92"/>
    </g>
    <polygon class="cls-8" points="2444.72 800.65 1273.89 124.68 103.06 800.65 103.06 2152.61 1273.89 2828.59 2444.72 2152.61 2444.72 800.65"/>
  </g>
</svg>