<?xml version="1.0" encoding="UTF-8"?>
<svg id="Layer_1" data-name="Layer 1" xmlns="http://www.w3.org/2000/svg" viewBox="0 0 2521.09 2919.69">
  <defs>
    <style>
      .cls-1, .cls-2, .cls-3, .cls-4, .cls-5, .cls-6 {
        fill: none;
      }

      .cls-7 {
        fill: #56b4e9;
      }

      .cls-8 {
        fill: #d55e00;
      }

      .cls-9 {
        fill: #009e73;
      }

      .cls-2 {
        stroke: #d55e00;
      }

      .cls-2, .cls-3, .cls-4, .cls-5, .cls-6 {
        stroke-miterlimit: 10;
        stroke-width: 30px;
      }

      .cls-10 {
        fill: #4d4d4d;
      }

      .cls-3 {
        stroke: #0072b2;
      }

      .cls-11 {
        fill: #fff;
      }

      .cls-4 {
        stroke: #009e73;
      }

      .cls-12 {
        fill: #0072b2;
      }

      .cls-13 {
        fill: #f5c710;
      }

      .cls-5 {
        stroke: #f5c710;
      }

      .cls-6 {
        stroke: #56b4e9;
      }
    </style>
  </defs>
  <polygon class="cls-11" points="2431.37 783.87 1260.54 107.89 89.72 783.87 89.72 2135.82 1260.54 2811.8 2431.37 2135.82 2431.37 783.87"/>
  <path class="cls-10" d="M.04,2187.62v-19.4s.04-1416.73.04-1416.73l-.09-19.35L1260.59,4.34l1260.46,727.78.04,1455.48-1260.5,727.75-16.8-9.7L16.84,2197.32.04,2187.62ZM67.2,770.94l-.04,1377.93,1193.34,688.93,1193.3-688.95.04-1377.93L1260.5,81.99,67.2,770.94Z"/>
  <polygon class="cls-1" points="1260.54 2837.82 2453.88 2148.84 2453.88 770.89 1260.54 81.92 67.2 770.89 67.2 2148.84 1260.54 2837.82"/>
  <line class="cls-5" x1="2320.92" y1="1383.02" x2="1323.62" y2="1958.81"/>
  <line class="cls-5" x1="2260.08" y1="1277.65" x2="2381.75" y2="1488.4"/>
  <line class="cls-2" x1="2234.1" y1="1994.64" x2="1236.8" y2="2570.42"/>
  <line class="cls-2" x1="2173.26" y1="1889.26" x2="2294.94" y2="2100.01"/>
  <line class="cls-3" x1="1347.64" y1="316.08" x2="350.34" y2="891.87"/>
  <line class="cls-3" x1="1286.8" y1="210.7" x2="1408.47" y2="421.45"/>
  <path class="cls-10" d="M1339.95,736.14l22.93-13.24,24.05,41.65,21.54-12.44,11.82,20.48-21.54,12.44,56.22,97.37c3,5.2,6.61,7.76,10.82,7.68,2.35,0,5.59-1.18,9.7-3.56,1.09-.63,2.25-1.34,3.47-2.13,1.22-.79,2.6-1.79,4.14-3.01l11.5,19.92c-2.12,2.34-4.48,4.51-7.08,6.5-2.6,2-5.54,3.94-8.81,5.83-10.58,6.11-19.49,7.26-26.73,3.45-7.24-3.81-13.62-10.49-19.14-20.06l-57.02-98.76-18.26,10.55-11.82-20.48,18.26-10.54-24.05-41.65Z"/>
  <path class="cls-10" d="M1412.03,676.15l23.05-13.31,16.41,28.42-23.05,13.31-16.41-28.42ZM1444.44,732.28l23.05-13.31,85.73,148.49-23.05,13.31-85.73-148.49Z"/>
  <path class="cls-10" d="M1591.02,652.85c5.62.47,13,2.71,22.12,6.73l-43.51-75.36,21.79-12.58,118.55,205.33-20.41,11.78-11.98-20.76c.04,12.24-2.36,22.48-7.2,30.72-4.84,8.24-11.9,15.04-21.18,20.4-14.97,8.65-31.97,9.15-51,1.49-19.03-7.65-35.24-23.08-48.65-46.3-12.55-21.73-18.42-43.44-17.62-65.14.8-21.7,10.49-37.91,29.06-48.63,10.29-5.94,20.3-8.5,30.03-7.68ZM1604.99,793.93c12.32,7.25,25.21,6.99,38.66-.77,10.44-6.03,16.14-15.98,17.11-29.84.96-13.86-3.95-30.13-14.72-48.8-10.88-18.85-22.41-30.8-34.57-35.85-12.16-5.05-23.34-4.63-33.53,1.25-11.36,6.56-17.79,16.71-19.27,30.44-1.48,13.74,3.19,29.98,14.02,48.74,9.22,15.97,19.99,27.58,32.31,34.84Z"/>
  <path class="cls-10" d="M1754.95,552.08l25.07-14.47c2.33,11.41,7.84,37.34,16.53,77.79,6.57,30.4,11.76,55.28,15.55,74.64,8.88,45.6,13.04,74.13,12.5,85.58-.55,11.45-7.36,20.96-20.45,28.51-3.19,1.84-5.72,3.12-7.6,3.83-1.88.71-4.3,1.43-7.24,2.14l-13.19-22.85c4.64-1.07,7.92-1.97,9.84-2.71,1.92-.74,3.55-1.49,4.9-2.27,4.19-2.42,6.83-4.96,7.92-7.63,1.09-2.67,1.66-5.5,1.72-8.5-.01-.98-.7-5.65-2.06-14.01-1.36-8.36-2.42-14.55-3.17-18.56l-138.55-124.78,25.7-14.84,106.31,100.65-33.76-142.54Z"/>
  <path class="cls-10" d="M1580.85,1152.53l22.33-12.89,10.4,18.01c1.01-8.82,3.26-16.48,6.73-23,4.79-9.53,12.39-17.3,22.82-23.33,15.43-8.91,31.94-10.57,49.52-4.99,17.58,5.58,32.69,19.32,45.34,41.23,17.09,29.6,21.53,55.23,13.31,76.89-5.21,13.72-14.35,24.36-27.43,31.9-10.27,5.93-20.19,8.67-29.74,8.2-5.54-.18-12.6-1.92-21.17-5.2l40.06,69.39-22.83,13.18-109.35-189.4ZM1728.25,1209.43c1.93-13.01-2.23-28.4-12.48-46.16-6.25-10.82-13.19-19.22-20.82-25.19-14.58-11.54-29.77-12.75-45.55-3.64-15.87,9.16-22.17,23.34-18.89,42.54,1.74,10.27,6.38,21.92,13.89,34.94,6.05,10.49,12.78,18.5,20.16,24.05,14.04,10.61,28.96,11.36,44.75,2.24,10.69-6.17,17.01-15.77,18.94-28.78Z"/>
  <path class="cls-10" d="M1711.36,1009.02l22.83-13.18,107.59,186.36-22.83,13.18-107.59-186.36Z"/>
  <path class="cls-10" d="M1916.86,975.77c18.74,4.73,34.65,18.41,47.72,41.06,12.64,21.89,17.78,43.03,15.45,63.42-2.33,20.39-14.63,37.01-36.89,49.86-18.56,10.72-36.95,12.91-55.16,6.58-18.21-6.33-33.46-20.14-45.76-41.44-13.17-22.81-17.91-44.3-14.21-64.47,3.7-20.16,15.25-35.84,34.65-47.04,17.38-10.04,35.45-12.69,54.19-7.96ZM1954.81,1074.26c-1.04-14.66-5.62-29-13.71-43.02-7.31-12.67-15.27-21.82-23.87-27.44-13.57-8.83-28.14-8.76-43.69.22-13.8,7.97-20.76,19.08-20.89,33.35-.13,14.27,4.15,28.91,12.83,43.95,8.34,14.45,18.42,24.67,30.26,30.68s24.56,5.08,38.2-2.79c14.97-8.64,21.93-20.29,20.88-34.95Z"/>
  <path class="cls-10" d="M1950.74,887.56l23.09-13.33,21.9,37.93,21.69-12.52,10.77,18.65-21.69,12.52,51.2,88.68c2.73,4.74,6.17,6.98,10.31,6.73,2.31-.09,5.54-1.34,9.69-3.73,1.1-.63,2.27-1.35,3.5-2.13,1.24-.79,2.63-1.78,4.2-2.99l10.47,18.14c-2.18,2.28-4.59,4.4-7.23,6.37-2.64,1.97-5.61,3.91-8.9,5.82-10.66,6.15-19.46,7.6-26.42,4.34s-12.95-9.24-17.98-17.95l-51.93-89.94-18.4,10.62-10.77-18.65,18.4-10.62-21.9-37.93Z"/>
  <path class="cls-10" d="M2120.65,964.36c5.08,7.21,10.39,11.93,15.93,14.14,10.12,3.97,22.43,1.77,36.93-6.61,8.63-4.98,15.16-11.21,19.6-18.67,4.44-7.47,4.43-15.05,0-22.74-3.37-5.84-8.56-8.76-15.56-8.78-4.43.08-12.29,1.74-23.59,4.99l-21.07,6.08c-13.43,3.92-23.97,5.72-31.61,5.39-13.53-.42-23.45-6.08-29.75-16.99-7.42-12.85-8.74-25.97-3.94-39.33,4.8-13.37,15.12-24.63,30.98-33.78,20.74-11.98,39.16-14.6,55.27-7.89,10.14,4.3,17.66,10.89,22.57,19.78l-21.57,12.45c-3.4-4.88-7.95-8.47-13.67-10.78-8.81-2.87-19.85-.48-33.09,7.16-8.83,5.1-14.57,10.6-17.22,16.51-2.65,5.91-2.41,11.56.7,16.95,3.41,5.9,9.12,8.9,17.13,8.99,4.66.12,10.82-.96,18.47-3.24l17.5-5.2c19.01-5.67,32.43-8.29,40.27-7.86,12.25.71,21.99,7.32,29.21,19.84,6.98,12.1,8.37,25.22,4.15,39.38s-15.82,26.73-34.83,37.7c-20.46,11.81-37.61,15.59-51.42,11.34-13.82-4.26-24.93-12.98-33.34-26.16l21.95-12.67Z"/>
  <line class="cls-4" x1="1490.28" y1="1326.33" x2="492.98" y2="1902.12"/>
  <line class="cls-4" x1="1429.44" y1="1220.96" x2="1551.12" y2="1431.71"/>
  <line class="cls-6" x1="1254.43" y1="913.75" x2="257.13" y2="1489.54"/>
  <line class="cls-6" x1="1193.59" y1="808.38" x2="1315.26" y2="1019.13"/>
  <polygon class="cls-1" points="1267.08 600.33 114.72 1265.65 114.72 1350.2 1063.44 802.45 1262.2 1146.71 114.72 1809.21 114.72 1893.76 1225.98 1252.17 1424.74 1596.42 315.1 2237.07 388.32 2279.35 2040.78 1325.3 2239.53 1669.56 785.83 2508.85 859.05 2551.13 1671.13 2082.27 1869.89 2426.53 1256.56 2780.63 1260.54 2782.93 2406.37 2121.39 2406.37 798.3 1260.54 136.76 114.72 798.3 114.72 806.64 1068.32 256.08 1267.08 600.33"/>
  <polygon class="cls-12" points="1267.08 600.33 1068.32 256.08 114.72 806.64 114.72 1265.65 1267.08 600.33"/>
  <polygon class="cls-7" points="1063.44 802.45 114.72 1350.2 114.72 1809.21 1262.2 1146.71 1063.44 802.45"/>
  <polygon class="cls-9" points="1225.98 1252.17 114.72 1893.76 114.72 2121.39 315.1 2237.07 1424.74 1596.42 1225.98 1252.17"/>
  <polygon class="cls-13" points="2040.78 1325.3 388.32 2279.35 785.83 2508.85 2239.53 1669.56 2040.78 1325.3"/>
  <polygon class="cls-8" points="1671.13 2082.27 859.05 2551.13 1256.56 2780.63 1869.89 2426.53 1671.13 2082.27"/>
  <polygon class="cls-11" points="114.72 1809.21 64.72 1838.07 64.72 1922.62 114.72 1893.76 114.72 1809.21"/>
  <polygon class="cls-11" points="1260.54 79.02 64.72 769.43 64.72 835.51 114.72 806.64 114.72 798.3 1260.54 136.76 2406.37 798.3 2406.37 2121.39 1260.54 2782.93 1256.56 2780.63 1206.56 2809.5 1260.54 2840.66 2456.37 2150.25 2456.37 769.43 1260.54 79.02"/>
  <polygon class="cls-11" points="785.83 2508.85 735.83 2537.72 809.05 2580 859.05 2551.13 785.83 2508.85"/>
  <polygon class="cls-11" points="114.72 1265.65 64.72 1294.51 64.72 1379.07 114.72 1350.2 114.72 1265.65"/>
  <polygon class="cls-11" points="315.1 2237.07 265.1 2265.94 338.32 2308.22 388.32 2279.35 315.1 2237.07"/>
  <polygon class="cls-11" points="114.72 806.64 64.72 835.51 64.72 1294.51 114.72 1265.65 114.72 806.64"/>
  <polygon class="cls-11" points="114.72 1350.2 64.72 1379.07 64.72 1838.07 114.72 1809.21 114.72 1350.2"/>
  <polygon class="cls-11" points="114.72 2121.39 114.72 1893.76 64.72 1922.62 64.72 2150.25 265.1 2265.94 315.1 2237.07 114.72 2121.39"/>
  <polygon class="cls-11" points="388.32 2279.35 338.32 2308.22 735.83 2537.72 785.83 2508.85 388.32 2279.35"/>
  <polygon class="cls-11" points="859.05 2551.13 809.05 2580 1206.56 2809.5 1256.56 2780.63 859.05 2551.13"/>
</svg>