<?xml version="1.0" encoding="UTF-8"?>
<svg id="Layer_1" data-name="Layer 1" xmlns="http://www.w3.org/2000/svg" xmlns:xlink="http://www.w3.org/1999/xlink" viewBox="0 0 2551.18 2948.03">
  <defs>
    <style>
      .cls-1, .cls-2, .cls-3, .cls-4, .cls-5, .cls-6, .cls-7 {
        fill: none;
      }

      .cls-1, .cls-8, .cls-9, .cls-10, .cls-11, .cls-12, .cls-13, .cls-14, .cls-15 {
        stroke-width: 0px;
      }

      .cls-2 {
        stroke: #e37d47;
      }

      .cls-2, .cls-3, .cls-4, .cls-5, .cls-6 {
        stroke-width: 30px;
      }

      .cls-2, .cls-3, .cls-4, .cls-5, .cls-6, .cls-7 {
        stroke-miterlimit: 10;
      }

      .cls-3 {
        stroke: #50ae61;
      }

      .cls-4 {
        stroke: #4fabd6;
      }

      .cls-5 {
        stroke: #c02c46;
      }

      .cls-6 {
        stroke: #f6c54c;
      }

      .cls-7 {
        stroke: #fff;
        stroke-width: 50px;
      }

      .cls-16 {
        font-size: 300px;
        letter-spacing: .05em;
      }

      .cls-16, .cls-17 {
        font-family: Helvetica, Helvetica;
      }

      .cls-16, .cls-17, .cls-10 {
        fill: #4d4d4d;
      }

      .cls-18 {
        clip-path: url(#clippath-1);
      }

      .cls-19 {
        clip-path: url(#clippath-2);
      }

      .cls-17 {
        font-size: 329.42px;
        letter-spacing: .05em;
      }

      .cls-8 {
        fill: #4fabd6;
      }

      .cls-9 {
        fill: #50ae61;
      }

      .cls-11 {
        fill: #4575b4;
      }

      .cls-12 {
        fill: #e37d47;
      }

      .cls-13 {
        fill: #c02c46;
      }

      .cls-14 {
        fill: #fff;
      }

      .cls-15 {
        fill: #f6c54c;
      }
    </style>
    <clipPath id="clippath">
      <polygon class="cls-1" points="-241.19 -2416.43 -1412.02 -3092.4 -2582.84 -2416.43 -2582.84 -1064.47 -1412.02 -388.5 -241.19 -1064.47 -241.19 -2416.43"/>
    </clipPath>
    <clipPath id="clippath-1">
      <polygon class="cls-1" points="1275.59 2851.99 2468.93 2163.02 2468.93 785.07 1275.59 96.09 82.25 785.07 82.25 2163.02 1275.59 2851.99"/>
    </clipPath>
    <clipPath id="clippath-2">
      <polygon class="cls-1" points="5674.03 -1535.29 4503.2 -2211.27 3332.38 -1535.29 3332.38 -183.34 4503.2 492.64 5674.03 -183.34 5674.03 -1535.29"/>
    </clipPath>
  </defs>
  <g>
    <polygon class="cls-14" points="2446.42 798.04 1275.59 122.06 104.76 798.04 104.76 2149.99 1275.59 2825.97 2446.42 2149.99 2446.42 798.04"/>
    <path class="cls-10" d="M15.09,2201.79v-19.4s.04-1416.73.04-1416.73l-.09-19.35L1275.63,18.52l1260.46,727.78.04,1455.48-1260.5,727.75-16.8-9.7L31.89,2211.49l-16.8-9.7ZM82.25,785.11l-.04,1377.93,1193.34,688.93,1193.3-688.95.04-1377.93L1275.55,96.16,82.25,785.11Z"/>
    <g class="cls-18">
      <rect class="cls-8" x="216.7" y="-.62" width="397.51" height="1771.99" transform="translate(974.48 82.89) rotate(60)"/>
      <rect class="cls-9" x="331.94" y="615.11" width="397.51" height="1494.58" transform="translate(1445.22 221.6) rotate(60)"/>
      <rect class="cls-15" x="438.69" y="1032.61" width="397.51" height="1623.42" transform="translate(1915.95 370.12) rotate(60)"/>
      <rect class="cls-12" x="1055.98" y="991.72" width="397.51" height="2079.54" transform="translate(2386.69 -70.88) rotate(60)"/>
      <rect class="cls-13" x="988.84" y="1923.34" width="397.51" height="1380.94" transform="translate(2857.42 278.42) rotate(60)"/>
    </g>
    <g>
      <line class="cls-2" x1="2335.96" y1="1397.19" x2="1338.67" y2="1972.98"/>
      <line class="cls-2" x1="2275.12" y1="1291.82" x2="2396.8" y2="1502.57"/>
    </g>
    <g>
      <line class="cls-5" x1="2249.15" y1="2008.81" x2="1251.85" y2="2584.6"/>
      <line class="cls-5" x1="2188.31" y1="1903.43" x2="2309.98" y2="2114.18"/>
    </g>
    <g>
      <line class="cls-4" x1="1362.68" y1="330.25" x2="365.39" y2="906.04"/>
      <line class="cls-4" x1="1301.85" y1="224.88" x2="1423.52" y2="435.63"/>
    </g>
    <text class="cls-17" transform="translate(1444.04 953.32) rotate(-30) scale(.9 1)"><tspan x="0" y="0">tidy</tspan></text>
    <text class="cls-16" transform="translate(1659.07 1310.46) rotate(-30)"><tspan x="0" y="0">plots</tspan></text>
    <g>
      <line class="cls-6" x1="1505.33" y1="1340.51" x2="508.03" y2="1916.29"/>
      <line class="cls-6" x1="1444.49" y1="1235.13" x2="1566.16" y2="1445.88"/>
    </g>
    <g>
      <line class="cls-3" x1="1269.47" y1="927.93" x2="272.18" y2="1503.72"/>
      <line class="cls-3" x1="1208.63" y1="822.55" x2="1330.31" y2="1033.3"/>
    </g>
    <polygon class="cls-7" points="2446.42 798.04 1275.59 122.06 104.76 798.04 104.76 2149.99 1275.59 2825.97 2446.42 2149.99 2446.42 798.04"/>
  </g>
  <g class="cls-19">
    <rect class="cls-11" x="2513.43" y="1572.14" width="409.71" height="442.37" transform="translate(-532.48 1599.4) rotate(-30)"/>
  </g>
</svg>